<svg xmlns="http://www.w3.org/2000/svg" width="600" height="400" viewBox="0 0 600 400">
  <defs>
    <linearGradient id="bg-gradient" x1="0%" y1="0%" x2="100%" y2="100%">
      <stop offset="0%" stop-color="#4caf50" />
      <stop offset="100%" stop-color="#2e7d32" />
    </linearGradient>
  </defs>
  <rect width="600" height="400" fill="url(#bg-gradient)" rx="10" ry="10" />
  
  <!-- SEO and Analytics Dashboard -->
  <g transform="translate(50, 50)">
    <!-- Dashboard background -->
    <rect x="0" y="0" width="500" height="300" fill="#ffffff" rx="10" ry="10" />
    
    <!-- Dashboard header -->
    <rect x="0" y="0" width="500" height="50" fill="#f5f5f5" rx="10" ry="10" />
    <rect x="20" y="15" width="100" height="20" fill="#4caf50" rx="5" ry="5" />
    <circle cx="450" cy="25" r="15" fill="#e0e0e0" />
    <rect x="400" y="20" width="30" height="10" fill="#e0e0e0" rx="5" ry="5" />
    
    <!-- Dashboard sidebar -->
    <rect x="0" y="50" width="100" height="250" fill="#f5f5f5" />
    <rect x="20" y="70" width="60" height="10" fill="#4caf50" rx="2" ry="2" />
    <rect x="20" y="100" width="60" height="10" fill="#e0e0e0" rx="2" ry="2" />
    <rect x="20" y="130" width="60" height="10" fill="#e0e0e0" rx="2" ry="2" />
    <rect x="20" y="160" width="60" height="10" fill="#e0e0e0" rx="2" ry="2" />
    <rect x="20" y="190" width="60" height="10" fill="#e0e0e0" rx="2" ry="2" />
    <rect x="20" y="220" width="60" height="10" fill="#e0e0e0" rx="2" ry="2" />
    <rect x="20" y="250" width="60" height="10" fill="#e0e0e0" rx="2" ry="2" />
    
    <!-- Dashboard main content -->
    <g transform="translate(120, 70)">
      <!-- Stats cards -->
      <rect x="0" y="0" width="110" height="80" fill="#f5f5f5" rx="5" ry="5" />
      <rect x="10" y="10" width="90" height="15" fill="#4caf50" rx="2" ry="2" />
      <text x="55" y="50" font-family="Arial, sans-serif" font-size="20" font-weight="bold" text-anchor="middle" fill="#4caf50">+24%</text>
      <rect x="10" y="65" width="60" height="5" fill="#e0e0e0" rx="2" ry="2" />
      
      <rect x="130" y="0" width="110" height="80" fill="#f5f5f5" rx="5" ry="5" />
      <rect x="140" y="10" width="90" height="15" fill="#ff9800" rx="2" ry="2" />
      <text x="185" y="50" font-family="Arial, sans-serif" font-size="20" font-weight="bold" text-anchor="middle" fill="#ff9800">+12%</text>
      <rect x="140" y="65" width="60" height="5" fill="#e0e0e0" rx="2" ry="2" />
      
      <rect x="260" y="0" width="110" height="80" fill="#f5f5f5" rx="5" ry="5" />
      <rect x="270" y="10" width="90" height="15" fill="#2196f3" rx="2" ry="2" />
      <text x="315" y="50" font-family="Arial, sans-serif" font-size="20" font-weight="bold" text-anchor="middle" fill="#2196f3">+37%</text>
      <rect x="270" y="65" width="60" height="5" fill="#e0e0e0" rx="2" ry="2" />
      
      <!-- Graph -->
      <rect x="0" y="100" width="370" height="160" fill="#f5f5f5" rx="5" ry="5" />
      <rect x="20" y="120" width="330" height="120" fill="#ffffff" rx="2" ry="2" />
      
      <!-- Graph grid -->
      <line x1="20" y1="140" x2="350" y2="140" stroke="#e0e0e0" stroke-width="1" />
      <line x1="20" y1="160" x2="350" y2="160" stroke="#e0e0e0" stroke-width="1" />
      <line x1="20" y1="180" x2="350" y2="180" stroke="#e0e0e0" stroke-width="1" />
      <line x1="20" y1="200" x2="350" y2="200" stroke="#e0e0e0" stroke-width="1" />
      <line x1="20" y1="220" x2="350" y2="220" stroke="#e0e0e0" stroke-width="1" />
      
      <line x1="70" y1="120" x2="70" y2="240" stroke="#e0e0e0" stroke-width="1" />
      <line x1="120" y1="120" x2="120" y2="240" stroke="#e0e0e0" stroke-width="1" />
      <line x1="170" y1="120" x2="170" y2="240" stroke="#e0e0e0" stroke-width="1" />
      <line x1="220" y1="120" x2="220" y2="240" stroke="#e0e0e0" stroke-width="1" />
      <line x1="270" y1="120" x2="270" y2="240" stroke="#e0e0e0" stroke-width="1" />
      <line x1="320" y1="120" x2="320" y2="240" stroke="#e0e0e0" stroke-width="1" />
      
      <!-- Graph data -->
      <polyline points="20,220 70,200 120,210 170,180 220,160 270,140 320,150" fill="none" stroke="#4caf50" stroke-width="3" />
      <circle cx="20" cy="220" r="4" fill="#4caf50" />
      <circle cx="70" cy="200" r="4" fill="#4caf50" />
      <circle cx="120" cy="210" r="4" fill="#4caf50" />
      <circle cx="170" cy="180" r="4" fill="#4caf50" />
      <circle cx="220" cy="160" r="4" fill="#4caf50" />
      <circle cx="270" cy="140" r="4" fill="#4caf50" />
      <circle cx="320" cy="150" r="4" fill="#4caf50" />
      
      <polyline points="20,230 70,220 120,200 170,210 220,190 270,170 320,180" fill="none" stroke="#2196f3" stroke-width="3" />
      <circle cx="20" cy="230" r="4" fill="#2196f3" />
      <circle cx="70" cy="220" r="4" fill="#2196f3" />
      <circle cx="120" cy="200" r="4" fill="#2196f3" />
      <circle cx="170" cy="210" r="4" fill="#2196f3" />
      <circle cx="220" cy="190" r="4" fill="#2196f3" />
      <circle cx="270" cy="170" r="4" fill="#2196f3" />
      <circle cx="320" cy="180" r="4" fill="#2196f3" />
    </g>
  </g>
  
  <!-- Title overlay -->
  <rect x="0" y="350" width="600" height="50" fill="rgba(0,0,0,0.5)" />
  <text x="300" y="380" font-family="Arial, sans-serif" font-size="20" font-weight="bold" text-anchor="middle" fill="#ffffff">SEO ve Analitik Çözümleri</text>
</svg>