<svg xmlns="http://www.w3.org/2000/svg" width="600" height="400" viewBox="0 0 600 400">
  <defs>
    <linearGradient id="bg-gradient" x1="0%" y1="0%" x2="100%" y2="100%">
      <stop offset="0%" stop-color="#1e88e5" />
      <stop offset="100%" stop-color="#1565c0" />
    </linearGradient>
  </defs>
  <rect width="600" height="400" fill="url(#bg-gradient)" rx="10" ry="10" />
  
  <!-- Browser window mockup -->
  <rect x="50" y="50" width="500" height="300" fill="#ffffff" rx="5" ry="5" />
  
  <!-- Browser toolbar -->
  <rect x="50" y="50" width="500" height="30" fill="#f5f5f5" rx="5" ry="5" />
  <circle cx="70" cy="65" r="5" fill="#ff6b6b" />
  <circle cx="90" cy="65" r="5" fill="#feca57" />
  <circle cx="110" cy="65" r="5" fill="#1dd1a1" />
  <rect x="130" y="60" width="300" height="10" fill="#e0e0e0" rx="5" ry="5" />
  
  <!-- Website content mockup -->
  <rect x="70" y="100" width="200" height="20" fill="#e0e0e0" rx="2" ry="2" />
  <rect x="70" y="130" width="460" height="10" fill="#e0e0e0" rx="2" ry="2" />
  <rect x="70" y="150" width="460" height="10" fill="#e0e0e0" rx="2" ry="2" />
  <rect x="70" y="170" width="300" height="10" fill="#e0e0e0" rx="2" ry="2" />
  
  <!-- Product grid mockup -->
  <rect x="70" y="200" width="140" height="120" fill="#f5f5f5" rx="5" ry="5" />
  <rect x="230" y="200" width="140" height="120" fill="#f5f5f5" rx="5" ry="5" />
  <rect x="390" y="200" width="140" height="120" fill="#f5f5f5" rx="5" ry="5" />
  
  <!-- Product images -->
  <rect x="85" y="215" width="110" height="70" fill="#1e88e5" rx="2" ry="2" />
  <rect x="245" y="215" width="110" height="70" fill="#1e88e5" rx="2" ry="2" />
  <rect x="405" y="215" width="110" height="70" fill="#1e88e5" rx="2" ry="2" />
  
  <!-- Product titles -->
  <rect x="85" y="295" width="110" height="10" fill="#e0e0e0" rx="2" ry="2" />
  <rect x="245" y="295" width="110" height="10" fill="#e0e0e0" rx="2" ry="2" />
  <rect x="405" y="295" width="110" height="10" fill="#e0e0e0" rx="2" ry="2" />
  
  <!-- Title overlay -->
  <rect x="0" y="350" width="600" height="50" fill="rgba(0,0,0,0.5)" />
  <text x="300" y="380" font-family="Arial, sans-serif" font-size="20" font-weight="bold" text-anchor="middle" fill="#ffffff">E-Ticaret Web Sitesi</text>
</svg>